<svg width="21" height="18" viewBox="0 0 21 18" fill="none" xmlns="http://www.w3.org/2000/svg">
<path fill-rule="evenodd" clip-rule="evenodd" d="M21 8.99999C21 9.33151 20.8683 9.64946 20.6339 9.88388C20.3995 10.1183 20.0816 10.25 19.75 10.25H5.26754L10.635 15.615C10.7513 15.7312 10.8434 15.8692 10.9063 16.021C10.9692 16.1729 11.0016 16.3356 11.0016 16.5C11.0016 16.6644 10.9692 16.8271 10.9063 16.979C10.8434 17.1308 10.7513 17.2688 10.635 17.385C10.5188 17.5012 10.3808 17.5934 10.229 17.6563C10.0771 17.7192 9.9144 17.7516 9.75004 17.7516C9.58568 17.7516 9.42293 17.7192 9.27108 17.6563C9.11923 17.5934 8.98126 17.5012 8.86504 17.385L1.36504 9.88499C1.24863 9.76888 1.15627 9.63094 1.09326 9.47908C1.03024 9.32721 0.997803 9.16441 0.997803 8.99999C0.997803 8.83557 1.03024 8.67277 1.09326 8.52091C1.15627 8.36905 1.24863 8.23111 1.36504 8.11499L8.86504 0.614992C9.09975 0.380276 9.4181 0.248413 9.75004 0.248413C10.082 0.248413 10.4003 0.380276 10.635 0.614992C10.8698 0.849709 11.0016 1.16805 11.0016 1.49999C11.0016 1.83193 10.8698 2.15028 10.635 2.38499L5.26754 7.74999H19.75C20.0816 7.74999 20.3995 7.88169 20.6339 8.11611C20.8683 8.35053 21 8.66847 21 8.99999Z" fill="white"/>
</svg>
