<svg width="270" height="102" viewBox="0 0 270 102" fill="none" xmlns="http://www.w3.org/2000/svg">
<path d="M56.25 21.6719H68.75V24.7031H56.25C55.8356 24.7031 55.4382 24.5434 55.1451 24.2592C54.8521 23.975 54.6875 23.5895 54.6875 23.1875C54.6875 22.7855 54.8521 22.4 55.1451 22.1158C55.4382 21.8316 55.8356 21.6719 56.25 21.6719Z" fill="white"/>
<path d="M14.0625 36.8281H57.8125V73.2031H14.0625V36.8281Z" fill="#B38B63"/>
<path d="M54.6875 36.8281V58.0469C54.6875 60.4587 53.6998 62.7717 51.9416 64.4771C50.1835 66.1825 47.7989 67.1406 45.3125 67.1406H14.0625V73.2031H57.8125V36.8281H54.6875Z" fill="#A97C50"/>
<path d="M67.1875 24.7031V33.7969C67.1875 36.2087 68.1752 38.5217 69.9334 40.2271C71.6915 41.9325 74.0761 42.8906 76.5625 42.8906V48.9531H85.9375V42.8906C86.8765 42.4352 87.6662 41.7352 88.2182 40.8689C88.7701 40.0026 89.0625 39.0044 89.0625 37.9861V24.7031H67.1875Z" fill="#FFBCAB"/>
<path d="M85.9375 48.9531H73.4375C70.9511 48.9531 68.5665 49.9112 66.8084 51.6166C65.0502 53.322 64.0625 55.6351 64.0625 58.0469V91.3906H95.3125V58.0469C95.3125 55.6351 94.3248 53.322 92.5666 51.6166C90.8085 49.9112 88.4239 48.9531 85.9375 48.9531Z" fill="white"/>
<path d="M85.9375 70.1719V61.0781C85.9375 59.4703 85.279 57.9282 84.1069 56.7913C82.9348 55.6544 81.3451 55.0156 79.6875 55.0156C78.0299 55.0156 76.4402 55.6544 75.2681 56.7913C74.096 57.9282 73.4375 59.4703 73.4375 61.0781V67.1406C73.4375 67.9446 73.1083 68.7156 72.5222 69.284C71.9362 69.8525 71.1413 70.1719 70.3125 70.1719H51.5625V82.2969H73.4375C76.7527 82.2969 79.9321 81.0194 82.2763 78.7455C84.6205 76.4717 85.9375 73.3876 85.9375 70.1719Z" fill="#55CB95"/>
<path d="M51.5625 68.6562H42.1875V73.2031V79.2656V83.8125H51.5625V82.2969V70.1719V68.6562Z" fill="#55CB95"/>
<path d="M90.625 24.7031V21.6719C90.625 18.4561 89.308 15.3721 86.9638 13.0982C84.6196 10.8243 81.4402 9.54688 78.125 9.54688C74.8098 9.54688 71.6304 10.8243 69.2862 13.0982C66.942 15.3721 65.625 18.4561 65.625 21.6719V24.7031H90.625Z" fill="white"/>
<path d="M35.9375 48.9531L40.625 51.9844V36.8281H31.25V51.9844L35.9375 48.9531Z" fill="#55CB95"/>
<path d="M29.6875 73.2031C29.6875 74.811 30.346 76.353 31.5181 77.49C32.6902 78.6269 34.2799 79.2656 35.9375 79.2656H42.1875V73.2031H29.6875Z" fill="#FFBCAB"/>
<path d="M64.0625 91.3906H95.3125V97.4531H64.0625V91.3906Z" fill="#6D6E71"/>
<path d="M111.88 20.2C112.648 20.072 113.501 19.9867 114.44 19.944C115.421 19.8587 116.403 19.7947 117.384 19.752C118.408 19.6667 119.389 19.624 120.328 19.624C121.267 19.5813 122.099 19.56 122.824 19.56C126.365 19.56 129.309 20.1147 131.656 21.224C134.045 22.2907 135.944 23.8267 137.352 25.832C138.803 27.7947 139.827 30.1627 140.424 32.936C141.021 35.7093 141.32 38.8027 141.32 42.216C141.32 45.3307 141.021 48.3173 140.424 51.176C139.869 53.992 138.867 56.488 137.416 58.664C135.965 60.7973 134.003 62.504 131.528 63.784C129.053 65.064 125.939 65.704 122.184 65.704C121.629 65.704 120.883 65.6827 119.944 65.64C119.005 65.5973 118.024 65.5333 117 65.448C115.976 65.4053 114.995 65.3413 114.056 65.256C113.117 65.2133 112.392 65.1493 111.88 65.064V20.2ZM123.656 26.984C122.973 26.984 122.269 27.0053 121.544 27.048C120.861 27.048 120.328 27.0907 119.944 27.176V58.024C120.072 58.0667 120.285 58.1093 120.584 58.152C120.925 58.152 121.267 58.1733 121.608 58.216C121.992 58.216 122.333 58.2373 122.632 58.28C122.973 58.28 123.208 58.28 123.336 58.28C125.256 58.28 126.835 57.832 128.072 56.936C129.309 56.04 130.269 54.8453 130.952 53.352C131.677 51.8587 132.168 50.152 132.424 48.232C132.723 46.2693 132.872 44.2213 132.872 42.088C132.872 40.1253 132.744 38.2267 132.488 36.392C132.275 34.5573 131.827 32.9573 131.144 31.592C130.504 30.184 129.565 29.0747 128.328 28.264C127.133 27.4107 125.576 26.984 123.656 26.984ZM167.634 62.632C166.567 63.5707 165.117 64.3387 163.282 64.936C161.447 65.5333 159.527 65.832 157.522 65.832C155.303 65.832 153.383 65.448 151.762 64.68C150.183 63.912 148.882 62.8027 147.858 61.352C146.834 59.9013 146.066 58.152 145.554 56.104C145.085 54.0133 144.85 51.6453 144.85 49C144.85 43.24 145.981 38.9947 148.242 36.264C150.546 33.4907 153.725 32.104 157.778 32.104C159.143 32.104 160.466 32.3173 161.746 32.744C163.026 33.128 164.157 33.8107 165.138 34.792C166.162 35.7307 166.973 37.0107 167.57 38.632C168.21 40.2107 168.53 42.216 168.53 44.648C168.53 45.5867 168.466 46.5893 168.338 47.656C168.253 48.7227 168.103 49.8747 167.89 51.112H152.338C152.423 53.7573 152.978 55.784 154.002 57.192C155.026 58.6 156.669 59.304 158.93 59.304C160.295 59.304 161.533 59.0907 162.642 58.664C163.794 58.2373 164.669 57.7893 165.266 57.32L167.634 62.632ZM157.65 38.632C156.029 38.632 154.813 39.2933 154.002 40.616C153.191 41.896 152.722 43.7093 152.594 46.056H161.426C161.554 43.624 161.298 41.7893 160.658 40.552C160.018 39.272 159.015 38.632 157.65 38.632ZM181.121 54.632C181.121 56.1253 181.27 57.192 181.569 57.832C181.868 58.472 182.358 58.792 183.041 58.792C183.425 58.792 183.809 58.7493 184.193 58.664C184.62 58.5787 185.089 58.4293 185.601 58.216L186.305 64.36C185.793 64.7013 184.918 65.0213 183.681 65.32C182.444 65.6187 181.185 65.768 179.905 65.768C177.772 65.768 176.172 65.2347 175.105 64.168C174.038 63.1013 173.505 61.288 173.505 58.728V20.2H181.121V54.632ZM189.58 33H197.196V65H189.58V33ZM188.684 23.976C188.684 22.696 189.089 21.6507 189.9 20.84C190.71 19.9867 191.862 19.56 193.356 19.56C194.849 19.56 196.044 19.9653 196.94 20.776C197.836 21.5867 198.284 22.6533 198.284 23.976C198.284 25.2987 197.836 26.344 196.94 27.112C196.044 27.88 194.849 28.264 193.356 28.264C191.862 28.264 190.71 27.88 189.9 27.112C189.089 26.3013 188.684 25.256 188.684 23.976ZM218.099 65V46.376C218.099 43.688 217.885 41.832 217.458 40.808C217.032 39.7413 216.2 39.208 214.963 39.208C213.939 39.208 213.085 39.5493 212.403 40.232C211.763 40.872 211.272 41.6613 210.931 42.6V65H203.315V33H209.203L210.163 36.84H210.355C211.165 35.5173 212.168 34.4293 213.363 33.576C214.6 32.68 216.221 32.232 218.227 32.232C219.891 32.232 221.235 32.5947 222.259 33.32C223.325 34.0453 224.157 35.3253 224.755 37.16C225.565 35.624 226.632 34.4293 227.955 33.576C229.277 32.68 230.835 32.232 232.627 32.232C234.035 32.232 235.229 32.424 236.211 32.808C237.235 33.1493 238.045 33.768 238.643 34.664C239.283 35.56 239.752 36.7973 240.051 38.376C240.349 39.912 240.499 41.8747 240.499 44.264V65H232.882V45.544C232.882 43.368 232.691 41.768 232.307 40.744C231.923 39.72 231.069 39.208 229.747 39.208C228.68 39.208 227.805 39.528 227.123 40.168C226.483 40.7653 226.013 41.5973 225.715 42.664V65H218.099ZM245.816 34.92C247.096 34.152 248.696 33.5333 250.616 33.064C252.536 32.5947 254.712 32.36 257.144 32.36C260.771 32.36 263.288 33.2987 264.696 35.176C266.147 37.0533 266.872 39.72 266.872 43.176C266.872 45.1813 266.808 47.1653 266.68 49.128C266.595 51.048 266.531 52.9467 266.488 54.824C266.445 56.6587 266.467 58.4507 266.552 60.2C266.68 61.9067 266.979 63.528 267.448 65.064H261.24L260.024 61.16H259.768C259.085 62.3973 258.125 63.4213 256.888 64.232C255.651 65.0427 254.093 65.448 252.216 65.448C249.699 65.448 247.715 64.616 246.264 62.952C244.813 61.2453 244.088 58.984 244.088 56.168C244.088 52.328 245.453 49.5973 248.184 47.976C250.915 46.3547 254.605 45.672 259.256 45.928C259.469 43.4533 259.299 41.6613 258.744 40.552C258.232 39.4427 257.101 38.888 255.352 38.888C254.072 38.888 252.749 39.0373 251.384 39.336C250.019 39.6347 248.803 40.0613 247.736 40.616L245.816 34.92ZM254.968 58.92C256.12 58.92 257.059 58.6427 257.784 58.088C258.509 57.4907 259.043 56.8507 259.384 56.168V50.856C258.403 50.728 257.464 50.7067 256.568 50.792C255.672 50.8773 254.883 51.0693 254.2 51.368C253.517 51.6667 252.963 52.1147 252.536 52.712C252.152 53.2667 251.96 53.992 251.96 54.888C251.96 56.2107 252.216 57.2133 252.728 57.896C253.283 58.5787 254.029 58.92 254.968 58.92Z" fill="white"/>
<path d="M120.208 92H111.088V75.32H112.576V90.656H120.208V92ZM130.587 83.576V90.008C130.651 90.6 131.171 90.952 132.147 91.064L132.075 92.216C130.843 92.216 129.939 91.896 129.363 91.256C127.859 91.912 126.355 92.24 124.851 92.24C123.779 92.24 122.963 91.936 122.403 91.328C121.843 90.704 121.563 89.824 121.563 88.688C121.563 87.536 121.843 86.688 122.403 86.144C122.979 85.584 123.875 85.24 125.091 85.112L129.171 84.704V83.576C129.171 82.68 128.971 82.04 128.571 81.656C128.187 81.256 127.667 81.056 127.011 81.056C125.987 81.056 124.659 81.152 123.027 81.344L122.283 81.416L122.211 80.264C123.971 79.928 125.507 79.76 126.819 79.76C128.147 79.76 129.107 80.072 129.699 80.696C130.291 81.32 130.587 82.28 130.587 83.576ZM123.051 88.592C123.051 90.208 123.715 91.016 125.043 91.016C125.619 91.016 126.251 90.952 126.939 90.824C127.627 90.68 128.171 90.536 128.571 90.392L129.171 90.176V85.832L125.259 86.24C124.475 86.304 123.907 86.528 123.555 86.912C123.219 87.296 123.051 87.856 123.051 88.592ZM141.892 80H143.308V92H141.892V91.112C140.66 91.864 139.428 92.24 138.196 92.24C136.564 92.24 135.484 91.824 134.956 90.992C134.444 90.16 134.188 88.584 134.188 86.264V80H135.604V86.24C135.604 88.096 135.772 89.344 136.108 89.984C136.46 90.624 137.212 90.944 138.364 90.944C138.924 90.944 139.5 90.864 140.092 90.704C140.684 90.528 141.132 90.352 141.436 90.176L141.892 89.936V80ZM148.333 92H146.917V80H148.333V80.888C149.677 80.136 150.981 79.76 152.245 79.76C153.845 79.76 154.909 80.184 155.437 81.032C155.981 81.88 156.253 83.432 156.253 85.688V92H154.813V85.76C154.813 83.92 154.637 82.68 154.285 82.04C153.933 81.384 153.181 81.056 152.029 81.056C151.469 81.056 150.877 81.144 150.253 81.32C149.645 81.48 149.173 81.648 148.837 81.824L148.333 82.064V92ZM168.69 74.672V92H167.25V91.112C165.986 91.864 164.706 92.24 163.41 92.24C162.818 92.24 162.306 92.168 161.874 92.024C161.442 91.896 161.002 91.632 160.554 91.232C159.642 90.416 159.186 88.824 159.186 86.456C159.186 84.072 159.57 82.36 160.338 81.32C161.106 80.28 162.402 79.76 164.226 79.76C164.93 79.76 165.938 79.864 167.25 80.072V74.672H168.69ZM161.61 90.152C161.914 90.456 162.21 90.664 162.498 90.776C162.802 90.888 163.186 90.944 163.65 90.944C164.13 90.944 164.674 90.856 165.282 90.68C165.906 90.504 166.394 90.336 166.746 90.176L167.25 89.912V81.32C165.97 81.128 164.978 81.032 164.274 81.032C162.914 81.032 161.97 81.448 161.442 82.28C160.93 83.112 160.674 84.4 160.674 86.144C160.674 88.192 160.986 89.528 161.61 90.152ZM172.277 92V80H173.693V81.728C174.285 81.312 175.005 80.912 175.853 80.528C176.717 80.144 177.509 79.888 178.229 79.76V81.2C177.541 81.344 176.821 81.568 176.069 81.872C175.317 82.16 174.733 82.416 174.317 82.64L173.693 83V92H172.277ZM179.257 80H180.721L183.913 90.752H184.777L187.993 80H189.457L184.273 97.4H182.833L184.441 92H182.785L179.257 80Z" fill="white"/>
</svg>
