<svg width="141" height="54" viewBox="0 0 141 54" fill="none" xmlns="http://www.w3.org/2000/svg">
<path d="M28.125 12.5938H34.375V14.1562H28.125C27.9178 14.1562 27.7191 14.0739 27.5726 13.9274C27.4261 13.7809 27.3438 13.5822 27.3438 13.375C27.3438 13.1678 27.4261 12.9691 27.5726 12.8226C27.7191 12.6761 27.9178 12.5938 28.125 12.5938Z" fill="black"/>
<path d="M7.03125 20.4062H28.9062V39.1562H7.03125V20.4062Z" fill="#B38B63"/>
<path d="M27.3438 20.4062V31.3438C27.3438 32.587 26.8499 33.7792 25.9708 34.6583C25.0917 35.5374 23.8995 36.0312 22.6562 36.0312H7.03125V39.1562H28.9062V20.4062H27.3438Z" fill="#A97C50"/>
<path d="M33.5938 14.1562V18.8438C33.5938 20.087 34.0876 21.2792 34.9667 22.1583C35.8458 23.0374 37.038 23.5312 38.2812 23.5312V26.6562H42.9688V23.5312C43.4383 23.2965 43.8331 22.9356 44.1091 22.4891C44.3851 22.0426 44.5312 21.528 44.5312 21.0031V14.1562H33.5938Z" fill="#FFBCAB"/>
<path d="M42.9688 26.6562H36.7188C35.4755 26.6562 34.2833 27.1501 33.4042 28.0292C32.5251 28.9083 32.0313 30.1005 32.0312 31.3438V48.5312H47.6562V31.3438C47.6562 30.1005 47.1624 28.9083 46.2833 28.0292C45.4042 27.1501 44.212 26.6562 42.9688 26.6562Z" fill="black"/>
<path d="M42.9688 37.5938V32.9062C42.9688 32.0774 42.6395 31.2826 42.0535 30.6965C41.4674 30.1105 40.6726 29.7812 39.8438 29.7812C39.0149 29.7812 38.2201 30.1105 37.634 30.6965C37.048 31.2826 36.7188 32.0774 36.7188 32.9062V36.0312C36.7188 36.4457 36.5541 36.8431 36.2611 37.1361C35.9681 37.4291 35.5707 37.5938 35.1562 37.5938H25.7812V43.8438H36.7188C38.3764 43.8438 39.9661 43.1853 41.1382 42.0132C42.3103 40.8411 42.9688 39.2514 42.9688 37.5938Z" fill="#55CB95"/>
<path d="M25.7812 36.8125H21.0938V39.1562V42.2812V44.625H25.7812V43.8438V37.5938V36.8125Z" fill="#55CB95"/>
<path d="M45.3125 14.1562V12.5938C45.3125 10.9361 44.654 9.34644 43.4819 8.17433C42.3098 7.00223 40.7201 6.34375 39.0625 6.34375C37.4049 6.34375 35.8152 7.00223 34.6431 8.17433C33.471 9.34644 32.8125 10.9361 32.8125 12.5938V14.1562H45.3125Z" fill="black"/>
<path d="M17.9688 26.6562L20.3125 28.2188V20.4062H15.625V28.2188L17.9688 26.6562Z" fill="#55CB95"/>
<path d="M14.8438 39.1562C14.8438 39.9851 15.173 40.7799 15.759 41.366C16.3451 41.952 17.1399 42.2812 17.9688 42.2812H21.0938V39.1562H14.8438Z" fill="#FFBCAB"/>
<path d="M32.0312 48.5312H47.6562V51.6562H32.0312V48.5312Z" fill="#6D6E71"/>
<path d="M51.62 11.8C52.052 11.728 52.532 11.68 53.06 11.656C53.612 11.608 54.164 11.572 54.716 11.548C55.292 11.5 55.844 11.476 56.372 11.476C56.9 11.452 57.368 11.44 57.776 11.44C59.768 11.44 61.424 11.752 62.744 12.376C64.088 12.976 65.156 13.84 65.948 14.968C66.764 16.072 67.34 17.404 67.676 18.964C68.012 20.524 68.18 22.264 68.18 24.184C68.18 25.936 68.012 27.616 67.676 29.224C67.364 30.808 66.8 32.212 65.984 33.436C65.168 34.636 64.064 35.596 62.672 36.316C61.28 37.036 59.528 37.396 57.416 37.396C57.104 37.396 56.684 37.384 56.156 37.36C55.628 37.336 55.076 37.3 54.5 37.252C53.924 37.228 53.372 37.192 52.844 37.144C52.316 37.12 51.908 37.084 51.62 37.036V11.8ZM58.244 15.616C57.86 15.616 57.464 15.628 57.056 15.652C56.672 15.652 56.372 15.676 56.156 15.724V33.076C56.228 33.1 56.348 33.124 56.516 33.148C56.708 33.148 56.9 33.16 57.092 33.184C57.308 33.184 57.5 33.196 57.668 33.22C57.86 33.22 57.992 33.22 58.064 33.22C59.144 33.22 60.032 32.968 60.728 32.464C61.424 31.96 61.964 31.288 62.348 30.448C62.756 29.608 63.032 28.648 63.176 27.568C63.344 26.464 63.428 25.312 63.428 24.112C63.428 23.008 63.356 21.94 63.212 20.908C63.092 19.876 62.84 18.976 62.456 18.208C62.096 17.416 61.568 16.792 60.872 16.336C60.2 15.856 59.324 15.616 58.244 15.616ZM82.9816 35.668C82.3816 36.196 81.5656 36.628 80.5336 36.964C79.5016 37.3 78.4216 37.468 77.2936 37.468C76.0456 37.468 74.9656 37.252 74.0536 36.82C73.1656 36.388 72.4336 35.764 71.8576 34.948C71.2816 34.132 70.8496 33.148 70.5616 31.996C70.2976 30.82 70.1656 29.488 70.1656 28C70.1656 24.76 70.8016 22.372 72.0736 20.836C73.3696 19.276 75.1576 18.496 77.4376 18.496C78.2056 18.496 78.9496 18.616 79.6696 18.856C80.3896 19.072 81.0256 19.456 81.5776 20.008C82.1536 20.536 82.6096 21.256 82.9456 22.168C83.3056 23.056 83.4856 24.184 83.4856 25.552C83.4856 26.08 83.4496 26.644 83.3776 27.244C83.3296 27.844 83.2456 28.492 83.1256 29.188H74.3776C74.4256 30.676 74.7376 31.816 75.3136 32.608C75.8896 33.4 76.8136 33.796 78.0856 33.796C78.8536 33.796 79.5496 33.676 80.1736 33.436C80.8216 33.196 81.3136 32.944 81.6496 32.68L82.9816 35.668ZM77.3656 22.168C76.4536 22.168 75.7696 22.54 75.3136 23.284C74.8576 24.004 74.5936 25.024 74.5216 26.344H79.4896C79.5616 24.976 79.4176 23.944 79.0576 23.248C78.6976 22.528 78.1336 22.168 77.3656 22.168ZM90.5681 31.168C90.5681 32.008 90.6521 32.608 90.8201 32.968C90.9881 33.328 91.2641 33.508 91.6481 33.508C91.8641 33.508 92.0801 33.484 92.2961 33.436C92.5361 33.388 92.8001 33.304 93.0881 33.184L93.4841 36.64C93.1961 36.832 92.7041 37.012 92.0081 37.18C91.3121 37.348 90.6041 37.432 89.8841 37.432C88.6841 37.432 87.7841 37.132 87.1841 36.532C86.5841 35.932 86.2841 34.912 86.2841 33.472V11.8H90.5681V31.168ZM95.326 19H99.61V37H95.326V19ZM94.822 13.924C94.822 13.204 95.05 12.616 95.506 12.16C95.962 11.68 96.61 11.44 97.45 11.44C98.29 11.44 98.962 11.668 99.466 12.124C99.97 12.58 100.222 13.18 100.222 13.924C100.222 14.668 99.97 15.256 99.466 15.688C98.962 16.12 98.29 16.336 97.45 16.336C96.61 16.336 95.962 16.12 95.506 15.688C95.05 15.232 94.822 14.644 94.822 13.924ZM111.368 37V26.524C111.368 25.012 111.248 23.968 111.008 23.392C110.768 22.792 110.3 22.492 109.604 22.492C109.028 22.492 108.548 22.684 108.164 23.068C107.804 23.428 107.528 23.872 107.336 24.4V37H103.052V19H106.364L106.904 21.16H107.012C107.468 20.416 108.032 19.804 108.704 19.324C109.4 18.82 110.312 18.568 111.44 18.568C112.376 18.568 113.132 18.772 113.708 19.18C114.308 19.588 114.776 20.308 115.112 21.34C115.568 20.476 116.168 19.804 116.912 19.324C117.656 18.82 118.532 18.568 119.54 18.568C120.332 18.568 121.004 18.676 121.556 18.892C122.132 19.084 122.588 19.432 122.924 19.936C123.284 20.44 123.548 21.136 123.716 22.024C123.884 22.888 123.968 23.992 123.968 25.336V37H119.684V26.056C119.684 24.832 119.576 23.932 119.36 23.356C119.144 22.78 118.664 22.492 117.92 22.492C117.32 22.492 116.828 22.672 116.444 23.032C116.084 23.368 115.82 23.836 115.652 24.436V37H111.368ZM126.959 20.08C127.679 19.648 128.579 19.3 129.659 19.036C130.739 18.772 131.963 18.64 133.331 18.64C135.371 18.64 136.787 19.168 137.579 20.224C138.395 21.28 138.803 22.78 138.803 24.724C138.803 25.852 138.767 26.968 138.695 28.072C138.647 29.152 138.611 30.22 138.587 31.276C138.563 32.308 138.575 33.316 138.623 34.3C138.695 35.26 138.863 36.172 139.127 37.036H135.635L134.951 34.84H134.807C134.423 35.536 133.883 36.112 133.187 36.568C132.491 37.024 131.615 37.252 130.559 37.252C129.143 37.252 128.027 36.784 127.211 35.848C126.395 34.888 125.987 33.616 125.987 32.032C125.987 29.872 126.755 28.336 128.291 27.424C129.827 26.512 131.903 26.128 134.519 26.272C134.639 24.88 134.543 23.872 134.231 23.248C133.943 22.624 133.307 22.312 132.323 22.312C131.603 22.312 130.859 22.396 130.091 22.564C129.323 22.732 128.639 22.972 128.039 23.284L126.959 20.08ZM132.107 33.58C132.755 33.58 133.283 33.424 133.691 33.112C134.099 32.776 134.399 32.416 134.591 32.032V29.044C134.039 28.972 133.511 28.96 133.007 29.008C132.503 29.056 132.059 29.164 131.675 29.332C131.291 29.5 130.979 29.752 130.739 30.088C130.523 30.4 130.415 30.808 130.415 31.312C130.415 32.056 130.559 32.62 130.847 33.004C131.159 33.388 131.579 33.58 132.107 33.58Z" fill="black"/>
<path d="M55.137 50H50.957V42.355H51.639V49.384H55.137V50ZM59.8942 46.139V49.087C59.9235 49.3583 60.1618 49.5197 60.6092 49.571L60.5762 50.099C60.0115 50.099 59.5972 49.9523 59.3332 49.659C58.6438 49.9597 57.9545 50.11 57.2652 50.11C56.7738 50.11 56.3998 49.9707 56.1432 49.692C55.8865 49.406 55.7582 49.0027 55.7582 48.482C55.7582 47.954 55.8865 47.5653 56.1432 47.316C56.4072 47.0593 56.8178 46.9017 57.3752 46.843L59.2452 46.656V46.139C59.2452 45.7283 59.1535 45.435 58.9702 45.259C58.7942 45.0757 58.5558 44.984 58.2552 44.984C57.7858 44.984 57.1772 45.028 56.4292 45.116L56.0882 45.149L56.0552 44.621C56.8618 44.467 57.5658 44.39 58.1672 44.39C58.7758 44.39 59.2158 44.533 59.4872 44.819C59.7585 45.105 59.8942 45.545 59.8942 46.139ZM56.4402 48.438C56.4402 49.1787 56.7445 49.549 57.3532 49.549C57.6172 49.549 57.9068 49.5197 58.2222 49.461C58.5375 49.395 58.7868 49.329 58.9702 49.263L59.2452 49.164V47.173L57.4522 47.36C57.0928 47.3893 56.8325 47.492 56.6712 47.668C56.5172 47.844 56.4402 48.1007 56.4402 48.438ZM65.0754 44.5H65.7244V50H65.0754V49.593C64.5107 49.9377 63.9461 50.11 63.3814 50.11C62.6334 50.11 62.1384 49.9193 61.8964 49.538C61.6617 49.1567 61.5444 48.4343 61.5444 47.371V44.5H62.1934V47.36C62.1934 48.2107 62.2704 48.7827 62.4244 49.076C62.5857 49.3693 62.9304 49.516 63.4584 49.516C63.7151 49.516 63.9791 49.4793 64.2504 49.406C64.5217 49.3253 64.7271 49.2447 64.8664 49.164L65.0754 49.054V44.5ZM68.0277 50H67.3787V44.5H68.0277V44.907C68.6437 44.5623 69.2414 44.39 69.8207 44.39C70.554 44.39 71.0417 44.5843 71.2837 44.973C71.533 45.3617 71.6577 46.073 71.6577 47.107V50H70.9977V47.14C70.9977 46.2967 70.917 45.7283 70.7557 45.435C70.5944 45.1343 70.2497 44.984 69.7217 44.984C69.465 44.984 69.1937 45.0243 68.9077 45.105C68.629 45.1783 68.4127 45.2553 68.2587 45.336L68.0277 45.446V50ZM77.3579 42.058V50H76.6979V49.593C76.1186 49.9377 75.5319 50.11 74.9379 50.11C74.6666 50.11 74.4319 50.077 74.2339 50.011C74.0359 49.9523 73.8343 49.8313 73.6289 49.648C73.2109 49.274 73.0019 48.5443 73.0019 47.459C73.0019 46.3663 73.1779 45.5817 73.5299 45.105C73.8819 44.6283 74.4759 44.39 75.3119 44.39C75.6346 44.39 76.0966 44.4377 76.6979 44.533V42.058H77.3579ZM74.1129 49.153C74.2523 49.2923 74.3879 49.3877 74.5199 49.439C74.6593 49.4903 74.8353 49.516 75.0479 49.516C75.2679 49.516 75.5173 49.4757 75.7959 49.395C76.0819 49.3143 76.3056 49.2373 76.4669 49.164L76.6979 49.043V45.105C76.1113 45.017 75.6566 44.973 75.3339 44.973C74.7106 44.973 74.2779 45.1637 74.0359 45.545C73.8013 45.9263 73.6839 46.5167 73.6839 47.316C73.6839 48.2547 73.8269 48.867 74.1129 49.153ZM79.0018 50V44.5H79.6508V45.292C79.9221 45.1013 80.2521 44.918 80.6408 44.742C81.0368 44.566 81.3998 44.4487 81.7298 44.39V45.05C81.4144 45.116 81.0844 45.2187 80.7398 45.358C80.3951 45.49 80.1274 45.6073 79.9368 45.71L79.6508 45.875V50H79.0018ZM82.2013 44.5H82.8723L84.3353 49.428H84.7313L86.2053 44.5H86.8763L84.5003 52.475H83.8403L84.5773 50H83.8183L82.2013 44.5Z" fill="black"/>
</svg>
