<svg width="30" height="30" viewBox="0 0 30 30" fill="none" xmlns="http://www.w3.org/2000/svg">
<mask id="mask0_504_114" style="mask-type:alpha" maskUnits="userSpaceOnUse" x="4" y="1" width="22" height="28">
<path d="M23.75 2.5H6.25C5.55964 2.5 5 3.05964 5 3.75V26.25C5 26.9404 5.55964 27.5 6.25 27.5H23.75C24.4404 27.5 25 26.9404 25 26.25V3.75C25 3.05964 24.4404 2.5 23.75 2.5Z" stroke="white" stroke-width="2"/>
<path d="M5 7.5C5 7.83152 5.1317 8.14946 5.36612 8.38388C5.60054 8.6183 5.91848 8.75 6.25 8.75H23.75C24.0815 8.75 24.3995 8.6183 24.6339 8.38388C24.8683 8.14946 25 7.83152 25 7.5V3.75C25 3.41848 24.8683 3.10054 24.6339 2.86612C24.3995 2.6317 24.0815 2.5 23.75 2.5H6.25C5.91848 2.5 5.60054 2.6317 5.36612 2.86612C5.1317 3.10054 5 3.41848 5 3.75V7.5Z" fill="white" stroke="white" stroke-width="2"/>
<path d="M8.75 6.875C9.44036 6.875 10 6.31536 10 5.625C10 4.93464 9.44036 4.375 8.75 4.375C8.05964 4.375 7.5 4.93464 7.5 5.625C7.5 6.31536 8.05964 6.875 8.75 6.875Z" fill="black"/>
<path d="M12.5 6.875C13.1904 6.875 13.75 6.31536 13.75 5.625C13.75 4.93464 13.1904 4.375 12.5 4.375C11.8096 4.375 11.25 4.93464 11.25 5.625C11.25 6.31536 11.8096 6.875 12.5 6.875Z" fill="black"/>
<path d="M15 22.5C17.4162 22.5 19.375 20.5412 19.375 18.125C19.375 15.7088 17.4162 13.75 15 13.75C12.5838 13.75 10.625 15.7088 10.625 18.125C10.625 20.5412 12.5838 22.5 15 22.5Z" fill="white" stroke="white" stroke-width="2"/>
</mask>
<g mask="url(#mask0_504_114)">
<path d="M0 0H30V30H0V0Z" fill="#C4C4C4"/>
</g>
</svg>
